<svg width="20" height="20" viewBox="0 0 20 20" fill="none" xmlns="http://www.w3.org/2000/svg">
<mask id="path-1-inside-1_2630_2065" fill="white">
<path d="M12.2031 8.6C12.9759 8.6 13.6031 9.2272 13.6031 10V13.7992C13.6031 14.7542 13.2237 15.6701 12.5484 16.3454C11.8731 17.0206 10.9573 17.4 10.0023 17.4C9.04729 17.4 8.13141 17.0206 7.45613 16.3454C6.78085 15.6701 6.40148 14.7542 6.40148 13.7992V10C6.40148 9.2272 7.02788 8.6 7.80148 8.6H12.2031V8.6ZM12.2031 9.8H7.80148C7.74843 9.8 7.69756 9.82107 7.66006 9.85858C7.62255 9.89609 7.60148 9.94696 7.60148 10V13.7992C7.60148 14.4359 7.85442 15.0466 8.30466 15.4968C8.75489 15.9471 9.36555 16.2 10.0023 16.2C10.639 16.2 11.2497 15.9471 11.6999 15.4968C12.1501 15.0466 12.4031 14.4359 12.4031 13.7992V10C12.4031 9.94696 12.382 9.89609 12.3445 9.85858C12.307 9.82107 12.2561 9.8 12.2031 9.8V9.8ZM3.39988 8.6H6.10468C5.82244 8.94087 5.65007 9.35924 5.61028 9.8H3.39988C3.34683 9.8 3.29596 9.82107 3.25846 9.85858C3.22095 9.89609 3.19988 9.94696 3.19988 10V12.5992C3.19983 12.9015 3.26828 13.1999 3.4001 13.4719C3.53191 13.744 3.72366 13.9827 3.96094 14.17C4.19822 14.3573 4.47487 14.4884 4.77009 14.5535C5.06531 14.6185 5.37144 14.6158 5.66548 14.5456C5.73348 14.9488 5.85748 15.3336 6.02788 15.6912C5.5537 15.8181 5.0567 15.8342 4.57531 15.7383C4.09392 15.6423 3.64104 15.437 3.25168 15.1381C2.86231 14.8392 2.54691 14.4548 2.32985 14.0146C2.11279 13.5743 1.99989 13.0901 1.99988 12.5992V10C1.99988 9.2272 2.62708 8.6 3.39988 8.6ZM13.8999 8.6H16.5999C17.3727 8.6 17.9999 9.2272 17.9999 10V12.6C18 13.0905 17.8873 13.5745 17.6706 14.0146C17.4539 14.4546 17.1389 14.839 16.7499 15.1379C16.361 15.4368 15.9086 15.6423 15.4276 15.7385C14.9466 15.8348 14.4499 15.8191 13.9759 15.6928C14.1471 15.3344 14.2711 14.9496 14.3399 14.5464C14.6335 14.6158 14.9391 14.6179 15.2337 14.5524C15.5283 14.487 15.8042 14.3557 16.0409 14.1685C16.2775 13.9812 16.4687 13.7429 16.6002 13.4712C16.7316 13.1996 16.7999 12.9018 16.7999 12.6V10C16.7999 9.94696 16.7788 9.89609 16.7413 9.85858C16.7038 9.82107 16.6529 9.8 16.5999 9.8H14.3943C14.3545 9.35924 14.1821 8.94087 13.8999 8.6ZM9.99988 3C10.6364 3 11.2468 3.25286 11.6969 3.70294C12.147 4.15303 12.3999 4.76348 12.3999 5.4C12.3999 6.03652 12.147 6.64697 11.6969 7.09706C11.2468 7.54714 10.6364 7.8 9.99988 7.8C9.36336 7.8 8.75291 7.54714 8.30282 7.09706C7.85273 6.64697 7.59988 6.03652 7.59988 5.4C7.59988 4.76348 7.85273 4.15303 8.30282 3.70294C8.75291 3.25286 9.36336 3 9.99988 3V3ZM15.1999 3.8C15.7303 3.8 16.239 4.01071 16.6141 4.38579C16.9892 4.76086 17.1999 5.26957 17.1999 5.8C17.1999 6.33043 16.9892 6.83914 16.6141 7.21421C16.239 7.58929 15.7303 7.8 15.1999 7.8C14.6694 7.8 14.1607 7.58929 13.7857 7.21421C13.4106 6.83914 13.1999 6.33043 13.1999 5.8C13.1999 5.26957 13.4106 4.76086 13.7857 4.38579C14.1607 4.01071 14.6694 3.8 15.1999 3.8ZM4.79988 3.8C5.33031 3.8 5.83902 4.01071 6.21409 4.38579C6.58916 4.76086 6.79988 5.26957 6.79988 5.8C6.79988 6.33043 6.58916 6.83914 6.21409 7.21421C5.83902 7.58929 5.33031 7.8 4.79988 7.8C4.26944 7.8 3.76074 7.58929 3.38566 7.21421C3.01059 6.83914 2.79988 6.33043 2.79988 5.8C2.79988 5.26957 3.01059 4.76086 3.38566 4.38579C3.76074 4.01071 4.26944 3.8 4.79988 3.8V3.8ZM9.99988 4.2C9.68162 4.2 9.37639 4.32643 9.15135 4.55147C8.92631 4.77652 8.79988 5.08174 8.79988 5.4C8.79988 5.71826 8.92631 6.02348 9.15135 6.24853C9.37639 6.47357 9.68162 6.6 9.99988 6.6C10.3181 6.6 10.6234 6.47357 10.8484 6.24853C11.0735 6.02348 11.1999 5.71826 11.1999 5.4C11.1999 5.08174 11.0735 4.77652 10.8484 4.55147C10.6234 4.32643 10.3181 4.2 9.99988 4.2ZM15.1999 5C14.9877 5 14.7842 5.08429 14.6342 5.23431C14.4842 5.38434 14.3999 5.58783 14.3999 5.8C14.3999 6.01217 14.4842 6.21566 14.6342 6.36569C14.7842 6.51571 14.9877 6.6 15.1999 6.6C15.4121 6.6 15.6155 6.51571 15.7656 6.36569C15.9156 6.21566 15.9999 6.01217 15.9999 5.8C15.9999 5.58783 15.9156 5.38434 15.7656 5.23431C15.6155 5.08429 15.4121 5 15.1999 5ZM4.79988 5C4.5877 5 4.38422 5.08429 4.23419 5.23431C4.08416 5.38434 3.99988 5.58783 3.99988 5.8C3.99988 6.01217 4.08416 6.21566 4.23419 6.36569C4.38422 6.51571 4.5877 6.6 4.79988 6.6C5.01205 6.6 5.21553 6.51571 5.36556 6.36569C5.51559 6.21566 5.59988 6.01217 5.59988 5.8C5.59988 5.58783 5.51559 5.38434 5.36556 5.23431C5.21553 5.08429 5.01205 5 4.79988 5Z"/>
</mask>
<path d="M12.2031 8.6C12.9759 8.6 13.6031 9.2272 13.6031 10V13.7992C13.6031 14.7542 13.2237 15.6701 12.5484 16.3454C11.8731 17.0206 10.9573 17.4 10.0023 17.4C9.04729 17.4 8.13141 17.0206 7.45613 16.3454C6.78085 15.6701 6.40148 14.7542 6.40148 13.7992V10C6.40148 9.2272 7.02788 8.6 7.80148 8.6H12.2031V8.6ZM12.2031 9.8H7.80148C7.74843 9.8 7.69756 9.82107 7.66006 9.85858C7.62255 9.89609 7.60148 9.94696 7.60148 10V13.7992C7.60148 14.4359 7.85442 15.0466 8.30466 15.4968C8.75489 15.9471 9.36555 16.2 10.0023 16.2C10.639 16.2 11.2497 15.9471 11.6999 15.4968C12.1501 15.0466 12.4031 14.4359 12.4031 13.7992V10C12.4031 9.94696 12.382 9.89609 12.3445 9.85858C12.307 9.82107 12.2561 9.8 12.2031 9.8V9.8ZM3.39988 8.6H6.10468C5.82244 8.94087 5.65007 9.35924 5.61028 9.8H3.39988C3.34683 9.8 3.29596 9.82107 3.25846 9.85858C3.22095 9.89609 3.19988 9.94696 3.19988 10V12.5992C3.19983 12.9015 3.26828 13.1999 3.4001 13.4719C3.53191 13.744 3.72366 13.9827 3.96094 14.17C4.19822 14.3573 4.47487 14.4884 4.77009 14.5535C5.06531 14.6185 5.37144 14.6158 5.66548 14.5456C5.73348 14.9488 5.85748 15.3336 6.02788 15.6912C5.5537 15.8181 5.0567 15.8342 4.57531 15.7383C4.09392 15.6423 3.64104 15.437 3.25168 15.1381C2.86231 14.8392 2.54691 14.4548 2.32985 14.0146C2.11279 13.5743 1.99989 13.0901 1.99988 12.5992V10C1.99988 9.2272 2.62708 8.6 3.39988 8.6ZM13.8999 8.6H16.5999C17.3727 8.6 17.9999 9.2272 17.9999 10V12.6C18 13.0905 17.8873 13.5745 17.6706 14.0146C17.4539 14.4546 17.1389 14.839 16.7499 15.1379C16.361 15.4368 15.9086 15.6423 15.4276 15.7385C14.9466 15.8348 14.4499 15.8191 13.9759 15.6928C14.1471 15.3344 14.2711 14.9496 14.3399 14.5464C14.6335 14.6158 14.9391 14.6179 15.2337 14.5524C15.5283 14.487 15.8042 14.3557 16.0409 14.1685C16.2775 13.9812 16.4687 13.7429 16.6002 13.4712C16.7316 13.1996 16.7999 12.9018 16.7999 12.6V10C16.7999 9.94696 16.7788 9.89609 16.7413 9.85858C16.7038 9.82107 16.6529 9.8 16.5999 9.8H14.3943C14.3545 9.35924 14.1821 8.94087 13.8999 8.6ZM9.99988 3C10.6364 3 11.2468 3.25286 11.6969 3.70294C12.147 4.15303 12.3999 4.76348 12.3999 5.4C12.3999 6.03652 12.147 6.64697 11.6969 7.09706C11.2468 7.54714 10.6364 7.8 9.99988 7.8C9.36336 7.8 8.75291 7.54714 8.30282 7.09706C7.85273 6.64697 7.59988 6.03652 7.59988 5.4C7.59988 4.76348 7.85273 4.15303 8.30282 3.70294C8.75291 3.25286 9.36336 3 9.99988 3V3ZM15.1999 3.8C15.7303 3.8 16.239 4.01071 16.6141 4.38579C16.9892 4.76086 17.1999 5.26957 17.1999 5.8C17.1999 6.33043 16.9892 6.83914 16.6141 7.21421C16.239 7.58929 15.7303 7.8 15.1999 7.8C14.6694 7.8 14.1607 7.58929 13.7857 7.21421C13.4106 6.83914 13.1999 6.33043 13.1999 5.8C13.1999 5.26957 13.4106 4.76086 13.7857 4.38579C14.1607 4.01071 14.6694 3.8 15.1999 3.8ZM4.79988 3.8C5.33031 3.8 5.83902 4.01071 6.21409 4.38579C6.58916 4.76086 6.79988 5.26957 6.79988 5.8C6.79988 6.33043 6.58916 6.83914 6.21409 7.21421C5.83902 7.58929 5.33031 7.8 4.79988 7.8C4.26944 7.8 3.76074 7.58929 3.38566 7.21421C3.01059 6.83914 2.79988 6.33043 2.79988 5.8C2.79988 5.26957 3.01059 4.76086 3.38566 4.38579C3.76074 4.01071 4.26944 3.8 4.79988 3.8V3.8ZM9.99988 4.2C9.68162 4.2 9.37639 4.32643 9.15135 4.55147C8.92631 4.77652 8.79988 5.08174 8.79988 5.4C8.79988 5.71826 8.92631 6.02348 9.15135 6.24853C9.37639 6.47357 9.68162 6.6 9.99988 6.6C10.3181 6.6 10.6234 6.47357 10.8484 6.24853C11.0735 6.02348 11.1999 5.71826 11.1999 5.4C11.1999 5.08174 11.0735 4.77652 10.8484 4.55147C10.6234 4.32643 10.3181 4.2 9.99988 4.2ZM15.1999 5C14.9877 5 14.7842 5.08429 14.6342 5.23431C14.4842 5.38434 14.3999 5.58783 14.3999 5.8C14.3999 6.01217 14.4842 6.21566 14.6342 6.36569C14.7842 6.51571 14.9877 6.6 15.1999 6.6C15.4121 6.6 15.6155 6.51571 15.7656 6.36569C15.9156 6.21566 15.9999 6.01217 15.9999 5.8C15.9999 5.58783 15.9156 5.38434 15.7656 5.23431C15.6155 5.08429 15.4121 5 15.1999 5ZM4.79988 5C4.5877 5 4.38422 5.08429 4.23419 5.23431C4.08416 5.38434 3.99988 5.58783 3.99988 5.8C3.99988 6.01217 4.08416 6.21566 4.23419 6.36569C4.38422 6.51571 4.5877 6.6 4.79988 6.6C5.01205 6.6 5.21553 6.51571 5.36556 6.36569C5.51559 6.21566 5.59988 6.01217 5.59988 5.8C5.59988 5.58783 5.51559 5.38434 5.36556 5.23431C5.21553 5.08429 5.01205 5 4.79988 5Z" fill="black" stroke="black" stroke-width="2" mask="url(#path-1-inside-1_2630_2065)"/>
</svg>
