<svg width="20" height="20" viewBox="0 0 20 20" fill="none" xmlns="http://www.w3.org/2000/svg">
<path fill-rule="evenodd" clip-rule="evenodd" d="M14.7081 1.66669C14.0398 1.66669 13.4022 1.93911 12.9347 2.41864C12.4675 2.89766 12.2079 3.54403 12.2079 4.2149C12.2079 4.88568 12.4675 5.53204 12.9347 6.01107C13.4022 6.4906 14.0398 6.76302 14.7081 6.76302C15.3765 6.76302 16.0141 6.4906 16.4816 6.01107C16.9487 5.53204 17.2083 4.88568 17.2083 4.2149C17.2083 3.54403 16.9487 2.89766 16.4816 2.41864C16.0141 1.93911 15.3765 1.66669 14.7081 1.66669ZM13.8296 3.29134C14.0654 3.04954 14.3818 2.91669 14.7081 2.91669C15.0345 2.91669 15.3508 3.04954 15.5866 3.29134C15.8228 3.53365 15.9583 3.86558 15.9583 4.2149C15.9583 4.56423 15.8228 4.89616 15.5866 5.13847C15.3508 5.38017 15.0345 5.51302 14.7081 5.51302C14.3818 5.51302 14.0654 5.38017 13.8296 5.13847C13.5934 4.89616 13.4579 4.56423 13.4579 4.2149C13.4579 3.86558 13.5934 3.53365 13.8296 3.29134Z" fill="black"/>
<path d="M5.91643 7.40776L8.67013 6.42957L11.6507 7.88871L8.5802 10.236C8.11735 10.5898 8.13811 11.2933 8.62089 11.6193L11.9451 13.8639L9.7063 16.9225C9.50245 17.201 9.56307 17.5922 9.8416 17.796C10.1201 17.9999 10.5112 17.9394 10.715 17.6608L13.1979 14.2687C13.4834 13.8787 13.3877 13.3296 12.9871 13.0592L9.77893 10.893L12.9208 8.49113C13.4238 8.10661 13.3466 7.32719 12.7778 7.04877L9.0693 5.23328C8.86341 5.13247 8.62537 5.11894 8.40931 5.19564L5.49793 6.22988C5.17281 6.34544 5.00273 6.7028 5.11829 7.02802C5.23385 7.35333 5.59111 7.52332 5.91643 7.40776Z" fill="black"/>
<path d="M18.1422 7.53654C18.3906 7.29708 18.3979 6.90137 18.1585 6.65285C17.919 6.40434 17.5233 6.39701 17.2747 6.63647L15.3588 8.48279L14.7576 8.1474C14.4563 7.97915 14.0754 8.08718 13.9074 8.38869C13.7391 8.6901 13.8471 9.07076 14.1486 9.23901L15.0074 9.71814C15.335 9.90094 15.7437 9.84794 16.0139 9.58752L18.1422 7.53654Z" fill="black"/>
<path d="M8.02804 12.8737C8.23352 12.5963 8.17513 12.2048 7.89763 11.9995C7.62012 11.7941 7.22889 11.8525 7.0234 12.1299L5.98723 13.5298L2.39673 15.5956C2.09746 15.7678 1.99451 16.1499 2.16663 16.4491C2.33875 16.7483 2.72083 16.8513 3.02011 16.6791L6.68242 14.5719C6.78414 14.5134 6.87264 14.4345 6.94243 14.3402L8.02804 12.8737Z" fill="black"/>
</svg>
