<svg width="20" height="20" viewBox="0 0 20 20" fill="none" xmlns="http://www.w3.org/2000/svg">
<path d="M7.08333 4.58331C6.86232 4.58331 6.65036 4.67111 6.49408 4.82739C6.3378 4.98367 6.25 5.19563 6.25 5.41665C6.25 5.63766 6.3378 5.84962 6.49408 6.0059C6.65036 6.16218 6.86232 6.24998 7.08333 6.24998C7.30435 6.24998 7.51631 6.16218 7.67259 6.0059C7.82887 5.84962 7.91667 5.63766 7.91667 5.41665C7.91667 5.19563 7.82887 4.98367 7.67259 4.82739C7.51631 4.67111 7.30435 4.58331 7.08333 4.58331ZM6.25 11.25C6.25 11.029 6.3378 10.817 6.49408 10.6607C6.65036 10.5044 6.86232 10.4166 7.08333 10.4166C7.30435 10.4166 7.51631 10.5044 7.67259 10.6607C7.82887 10.817 7.91667 11.029 7.91667 11.25C7.91667 11.471 7.82887 11.683 7.67259 11.8392C7.51631 11.9955 7.30435 12.0833 7.08333 12.0833C6.86232 12.0833 6.65036 11.9955 6.49408 11.8392C6.3378 11.683 6.25 11.471 6.25 11.25ZM7.08333 7.49998C6.86232 7.49998 6.65036 7.58778 6.49408 7.74406C6.3378 7.90034 6.25 8.1123 6.25 8.33331C6.25 8.55433 6.3378 8.76629 6.49408 8.92257C6.65036 9.07885 6.86232 9.16665 7.08333 9.16665C7.30435 9.16665 7.51631 9.07885 7.67259 8.92257C7.82887 8.76629 7.91667 8.55433 7.91667 8.33331C7.91667 8.1123 7.82887 7.90034 7.67259 7.74406C7.51631 7.58778 7.30435 7.49998 7.08333 7.49998ZM9.16667 5.41665C9.16667 5.19563 9.25446 4.98367 9.41074 4.82739C9.56702 4.67111 9.77899 4.58331 10 4.58331C10.221 4.58331 10.433 4.67111 10.5893 4.82739C10.7455 4.98367 10.8333 5.19563 10.8333 5.41665C10.8333 5.63766 10.7455 5.84962 10.5893 6.0059C10.433 6.16218 10.221 6.24998 10 6.24998C9.77899 6.24998 9.56702 6.16218 9.41074 6.0059C9.25446 5.84962 9.16667 5.63766 9.16667 5.41665ZM10 10.4166C9.77899 10.4166 9.56702 10.5044 9.41074 10.6607C9.25446 10.817 9.16667 11.029 9.16667 11.25C9.16667 11.471 9.25446 11.683 9.41074 11.8392C9.56702 11.9955 9.77899 12.0833 10 12.0833C10.221 12.0833 10.433 11.9955 10.5893 11.8392C10.7455 11.683 10.8333 11.471 10.8333 11.25C10.8333 11.029 10.7455 10.817 10.5893 10.6607C10.433 10.5044 10.221 10.4166 10 10.4166ZM12.0833 11.25C12.0833 11.029 12.1711 10.817 12.3274 10.6607C12.4837 10.5044 12.6957 10.4166 12.9167 10.4166C13.1377 10.4166 13.3496 10.5044 13.5059 10.6607C13.6622 10.817 13.75 11.029 13.75 11.25C13.75 11.471 13.6622 11.683 13.5059 11.8392C13.3496 11.9955 13.1377 12.0833 12.9167 12.0833C12.6957 12.0833 12.4837 11.9955 12.3274 11.8392C12.1711 11.683 12.0833 11.471 12.0833 11.25ZM10 7.49998C9.77899 7.49998 9.56702 7.58778 9.41074 7.74406C9.25446 7.90034 9.16667 8.1123 9.16667 8.33331C9.16667 8.55433 9.25446 8.76629 9.41074 8.92257C9.56702 9.07885 9.77899 9.16665 10 9.16665C10.221 9.16665 10.433 9.07885 10.5893 8.92257C10.7455 8.76629 10.8333 8.55433 10.8333 8.33331C10.8333 8.1123 10.7455 7.90034 10.5893 7.74406C10.433 7.58778 10.221 7.49998 10 7.49998Z" fill="black"/>
<path d="M5.20837 1.66669C4.71109 1.66669 4.23418 1.86423 3.88255 2.21586C3.53092 2.56749 3.33337 3.04441 3.33337 3.54169V17.2917C3.33337 17.6367 3.61337 17.9167 3.95837 17.9167H16.0442C16.21 17.9167 16.3689 17.8508 16.4861 17.7336C16.6034 17.6164 16.6692 17.4574 16.6692 17.2917V9.79169C16.6692 9.54546 16.6207 9.30164 16.5265 9.07416C16.4323 8.84667 16.2941 8.63997 16.12 8.46586C15.9459 8.29175 15.7392 8.15364 15.5117 8.05941C15.2843 7.96519 15.0404 7.91669 14.7942 7.91669H13.75V3.54169C13.75 3.04441 13.5525 2.56749 13.2009 2.21586C12.8492 1.86423 12.3723 1.66669 11.875 1.66669H5.20837ZM4.58337 3.54169C4.58337 3.37593 4.64922 3.21696 4.76643 3.09975C4.88364 2.98253 5.04261 2.91669 5.20837 2.91669H11.875C12.0408 2.91669 12.1998 2.98253 12.317 3.09975C12.4342 3.21696 12.5 3.37593 12.5 3.54169V8.54169C12.5 8.88669 12.78 9.16669 13.125 9.16669H14.7942C14.96 9.16669 15.1189 9.23254 15.2361 9.34975C15.3534 9.46696 15.4192 9.62593 15.4192 9.79169V16.6667H13.75V14.375C13.75 14.2093 13.6842 14.0503 13.567 13.9331C13.4498 13.8159 13.2908 13.75 13.125 13.75H6.87504C6.70928 13.75 6.55031 13.8159 6.4331 13.9331C6.31589 14.0503 6.25004 14.2093 6.25004 14.375V16.6667H4.58337V3.54169ZM12.5 15V16.6667H10.625V15H12.5ZM9.37504 15V16.6667H7.50004V15H9.37504Z" fill="black"/>
</svg>
