<svg width="20" height="20" viewBox="0 0 20 20" fill="none" xmlns="http://www.w3.org/2000/svg">
<path d="M16.7382 17.008C16.4181 17.322 15.982 17.5001 15.5254 17.5001L5.21046 17.5001C4.75381 17.5001 4.31774 17.322 3.99769 17.008C3.67796 16.6943 3.50012 16.2708 3.50012 15.8314L3.50012 13.4217C3.50012 12.9823 3.67796 12.5589 3.99769 12.2452C4.31774 11.9311 4.75381 11.7531 5.21046 11.7531L5.84038 11.7531L5.84038 12.1989L5.21046 12.1989C4.88548 12.1989 4.57194 12.3254 4.3393 12.5537C4.10634 12.7823 3.97368 13.0943 3.97368 13.4217L3.97368 15.8314C3.97368 16.1588 4.10634 16.4709 4.3393 16.6994C4.57194 16.9277 4.88548 17.0543 5.21046 17.0543L15.5254 17.0543C15.8504 17.0543 16.1639 16.9277 16.3965 16.6994C16.6295 16.4709 16.7622 16.1588 16.7622 15.8314L16.7622 13.4217C16.7622 13.0943 16.6295 12.7823 16.3965 12.5537C16.1639 12.3254 15.8504 12.1989 15.5254 12.1989L15.0923 12.1989L15.0923 11.7531L15.5254 11.7531C15.982 11.7531 16.4181 11.9311 16.7382 12.2452C17.0579 12.5589 17.2357 12.9823 17.2357 13.4217L17.2357 15.8314C17.2357 16.2708 17.0579 16.6943 16.7382 17.008Z" fill="black" stroke="black"/>
<path d="M16.7382 7.75492C16.4181 8.06894 15.982 8.24701 15.5254 8.24701L15.0923 8.24701L15.0923 7.80122L15.5254 7.80123C15.8504 7.80123 16.1639 7.67465 16.3965 7.4464C16.6295 7.21782 16.7622 6.90577 16.7622 6.57833L16.7622 4.16869C16.7622 3.84126 16.6295 3.5292 16.3965 3.30063C16.1639 3.07238 15.8504 2.9458 15.5254 2.9458L5.21046 2.9458C4.88548 2.9458 4.57194 3.07237 4.3393 3.30063C4.10634 3.5292 3.97368 3.84126 3.97368 4.16869L3.97368 6.57833C3.97368 6.90577 4.10634 7.21782 4.3393 7.4464C4.57194 7.67465 4.88548 7.80122 5.21046 7.80122L5.84038 7.80122L5.84038 8.24701L5.21046 8.24701C4.75381 8.24701 4.31774 8.06894 3.99769 7.75492C3.67796 7.44121 3.50012 7.01779 3.50012 6.57833L3.50012 4.16869C3.50012 3.72924 3.67796 3.30581 3.99769 2.99211C4.31774 2.67809 4.75381 2.50002 5.21046 2.50002L15.5254 2.50002C15.982 2.50002 16.4181 2.67809 16.7382 2.99211C17.0579 3.30581 17.2357 3.72924 17.2357 4.16869L17.2357 6.57833C17.2357 7.01779 17.0579 7.44122 16.7382 7.75492Z" fill="black" stroke="black"/>
<path d="M8.02617 9.14389L8.06304 9.09566L10.5018 6.18799L10.5018 6.18798C10.591 6.08164 10.7188 6.01238 10.8591 5.9952C10.9996 5.97802 11.1411 6.01434 11.2546 6.09622C11.368 6.17805 11.4445 6.29895 11.4693 6.43366C11.4939 6.56738 11.4657 6.70542 11.3902 6.81988L11.3512 6.87256L9.82182 8.69542L9.64954 8.90076H9.91758H12.5424C12.9896 8.90076 13.237 9.38465 13.0045 9.73025L12.9686 9.77846L9.4665 14.0193C9.46645 14.0194 9.4664 14.0194 9.46635 14.0195C9.37784 14.1258 9.25083 14.1954 9.111 14.2133C8.97106 14.2312 8.82966 14.196 8.71583 14.1152C8.60207 14.0344 8.52465 13.9145 8.49863 13.7803C8.47283 13.6474 8.49927 13.5098 8.57291 13.3949L8.6118 13.3424L11.2221 10.1806L11.391 9.97606H11.1257H8.48685C8.03778 9.97606 7.7907 9.48885 8.02617 9.14389Z" fill="black" stroke="black" stroke-width="0.25"/>
</svg>
