<svg width="1897" height="399" viewBox="0 0 1897 399" fill="none" xmlns="http://www.w3.org/2000/svg">
<path d="M637.969 311.922C631.598 305.685 626.624 298.246 623.34 290.065C620.055 281.884 618.538 273.136 618.882 264.363V254.062C618.849 253.494 618.944 252.925 619.158 252.396C619.373 251.866 619.695 251.388 620.118 250.994C620.536 250.561 621.053 250.219 621.618 249.993C622.184 249.766 622.784 249.659 623.395 249.679H657.286C657.879 249.674 658.463 249.789 659.007 250.015C659.552 250.241 660.047 250.575 660.453 250.994C660.876 251.388 661.209 251.866 661.423 252.396C661.638 252.925 661.732 253.494 661.699 254.062V262.062C661.34 270.325 664.022 278.443 669.267 284.964C671.489 287.725 674.334 289.952 677.586 291.472C680.838 292.992 684.412 293.765 688.023 293.731C691.65 293.818 695.249 293.126 698.57 291.706C701.89 290.285 704.84 288.17 707.219 285.512C712.488 279.393 715.156 271.555 714.677 263.596C714.782 257.94 713.388 252.354 710.617 247.377C707.637 242.347 703.82 237.83 699.32 234.008C694.462 229.954 686.55 223.926 675.479 216.256C664.957 209.06 654.886 201.267 645.316 192.915C637.493 185.877 630.992 177.57 626.109 168.368C620.823 157.985 618.191 146.522 618.43 134.945C617.972 126.123 619.395 117.303 622.622 109.043C625.85 100.782 630.813 93.2594 637.185 86.9477C643.719 80.9206 651.435 76.2325 659.879 73.1636C668.322 70.0946 677.315 68.7077 686.324 69.0857C695.653 68.6505 704.977 70.0904 713.706 73.3151C722.435 76.5397 730.383 81.4793 737.051 87.8243C743.554 94.4258 748.61 102.239 751.911 110.79C755.212 119.342 756.692 128.454 756.258 137.575V146.232C756.278 146.825 756.161 147.415 755.927 147.963C755.693 148.511 755.347 149.005 754.901 149.41C754.49 149.815 753.99 150.131 753.445 150.339C752.9 150.546 752.32 150.641 751.735 150.615H717.843C717.258 150.641 716.678 150.546 716.133 150.339C715.588 150.131 715.088 149.815 714.677 149.41C714.231 149.005 713.885 148.511 713.651 147.963C713.417 147.415 713.3 146.825 713.32 146.232V136.808C713.758 128.621 711.201 120.547 706.094 114.015C703.745 111.243 700.769 109.031 697.4 107.549C694.031 106.068 690.363 105.355 686.666 105.467C683.251 105.38 679.859 106.045 676.747 107.411C673.636 108.778 670.889 110.811 668.705 113.357C663.557 119.525 661.004 127.358 661.578 135.274C661.424 143.225 664.149 150.978 669.267 157.191C678.313 166.633 688.431 175.052 699.43 182.285C714.493 193.463 726.011 202.448 733.995 209.242C741.425 215.602 747.563 223.26 752.077 231.817C757.886 244.857 759.75 259.232 757.45 273.262C755.149 287.292 748.774 300.397 739.081 311.045C725.245 322.976 707.373 329.567 688.861 329.567C670.349 329.567 652.488 322.976 638.653 311.045L637.969 311.922Z" fill="white"/>
<path d="M855.363 183.857H864.067C868.356 183.973 872.61 183.128 876.523 181.385C880.435 179.643 883.905 177.047 886.662 173.793C892.904 165.744 896.022 155.748 895.466 145.616C896.086 135.32 893.093 125.129 886.993 116.768C884.446 113.419 881.128 110.718 877.317 108.89C873.506 107.063 869.316 106.16 865.082 106.257H842.488C841.998 106.256 841.521 106.441 841.164 106.773C840.807 107.106 840.597 107.561 840.568 108.046V325.079C840.57 326.241 840.122 327.36 839.322 328.21C838.895 328.641 838.384 328.982 837.821 329.212C837.258 329.443 836.654 329.558 836.045 329.552H802.153C801.544 329.558 800.94 329.443 800.377 329.212C799.814 328.982 799.303 328.641 798.877 328.21C798.077 327.36 797.64 326.241 797.641 325.079V73.4951C797.64 72.3333 798.077 71.2143 798.877 70.3643C799.303 69.9336 799.814 69.5927 800.377 69.3621C800.94 69.1315 801.544 69.016 802.153 69.0225H872.65C884.967 68.6945 897.105 71.9526 907.568 78.3928C918.031 84.833 926.359 94.1717 931.508 105.251C937.255 117.659 940.115 131.186 939.871 144.833C940.259 158.663 937.193 172.374 930.946 184.751C925.339 195.57 916.551 204.457 905.748 210.245C904.731 210.245 904.396 211.251 904.622 212.481L941.449 324.297C941.576 324.924 941.576 325.57 941.449 326.198C941.449 328.434 940.092 329.552 937.267 329.552H901.235C900.116 329.604 899.014 329.262 898.124 328.586C897.235 327.911 896.609 326.946 896.37 325.862L864.067 218.743L853.785 187.211C853.66 186.888 853.596 186.545 853.609 186.199C853.621 185.854 853.704 185.515 853.851 185.201C853.999 184.888 854.21 184.608 854.469 184.377C854.729 184.146 855.033 183.969 855.363 183.857Z" fill="white"/>
<path d="M1408.31 328.227C1407.9 327.811 1407.57 327.32 1407.36 326.781C1407.14 326.242 1407.04 325.666 1407.06 325.088V73.516C1407.04 72.3146 1407.49 71.1514 1408.31 70.2648C1409.21 69.4727 1410.37 69.0345 1411.57 69.0317H1447.65C1448.78 68.903 1449.92 69.1685 1450.87 69.7827C1451.82 70.3969 1452.52 71.3209 1452.86 72.3948L1511.1 223.966C1511.67 224.751 1512.12 225.087 1512.68 225.087C1513.25 225.087 1513.35 225.087 1513.35 223.629V73.516C1513.33 72.9095 1513.45 72.3058 1513.69 71.7451C1513.92 71.1844 1514.27 70.6796 1514.71 70.2648C1515.57 69.4708 1516.71 69.0302 1517.88 69.0317H1551.81C1552.98 69.0302 1554.12 69.4708 1554.98 70.2648C1555.41 70.6895 1555.74 71.1986 1555.95 71.7588C1556.17 72.319 1556.25 72.9178 1556.22 73.516V325.312C1556.25 325.893 1556.17 326.474 1555.95 327.016C1555.74 327.558 1555.4 328.047 1554.98 328.451C1554.57 328.879 1554.08 329.22 1553.53 329.452C1552.99 329.683 1552.4 329.8 1551.81 329.796H1515.29C1514.16 329.925 1513.02 329.659 1512.07 329.045C1511.12 328.431 1510.42 327.507 1510.09 326.433L1451.39 174.414C1451.39 173.741 1450.7 173.405 1450.14 173.517C1449.99 173.531 1449.85 173.574 1449.72 173.644C1449.59 173.713 1449.47 173.808 1449.38 173.923C1449.28 174.038 1449.21 174.17 1449.17 174.312C1449.12 174.454 1449.11 174.603 1449.12 174.75V325.312C1449.14 325.901 1449.04 326.488 1448.8 327.03C1448.57 327.573 1448.21 328.058 1447.76 328.451C1447.36 328.879 1446.87 329.22 1446.33 329.452C1445.78 329.683 1445.2 329.8 1444.61 329.796H1410.68C1409.74 329.54 1408.91 328.99 1408.31 328.227Z" fill="white"/>
<path d="M1724.75 104.691C1724.36 105.131 1723.87 105.48 1723.32 105.713C1722.77 105.945 1722.18 106.056 1721.58 106.037H1640.95C1639.71 106.037 1639.14 106.711 1639.14 107.945V178.427C1639.1 178.672 1639.12 178.921 1639.2 179.157C1639.27 179.392 1639.41 179.606 1639.58 179.781C1639.76 179.956 1639.98 180.087 1640.21 180.164C1640.45 180.241 1640.71 180.261 1640.95 180.223H1689.13C1690.32 180.251 1691.45 180.733 1692.3 181.569C1693.14 182.405 1693.63 183.53 1693.65 184.712V213.443C1693.67 214.034 1693.56 214.621 1693.32 215.164C1693.09 215.707 1692.74 216.192 1692.3 216.586C1691.89 217.015 1691.39 217.356 1690.85 217.588C1690.3 217.82 1689.72 217.937 1689.13 217.932H1640.95C1639.71 217.932 1639.14 218.606 1639.14 219.841V290.659C1639.14 291.893 1639.14 292.566 1640.95 292.566H1722.15C1722.73 292.554 1723.32 292.657 1723.86 292.869C1724.4 293.081 1724.9 293.398 1725.32 293.801C1725.75 294.204 1726.09 294.691 1726.32 295.232C1726.56 295.772 1726.68 296.355 1726.68 296.944V325.338C1726.65 326.52 1726.16 327.645 1725.32 328.481C1724.48 329.317 1723.34 329.799 1722.15 329.828H1600.01C1599.42 329.832 1598.84 329.715 1598.29 329.483C1597.75 329.251 1597.25 328.91 1596.84 328.481C1596.4 328.087 1596.05 327.602 1595.82 327.059C1595.58 326.516 1595.48 325.929 1595.5 325.338V73.4902C1595.48 72.8831 1595.58 72.2787 1595.82 71.7174C1596.05 71.1561 1596.4 70.6507 1596.84 70.2354C1597.7 69.4406 1598.84 68.9995 1600.01 69.001H1722.15C1722.73 68.9885 1723.32 69.0912 1723.86 69.3031C1724.4 69.515 1724.9 69.8318 1725.32 70.2354C1725.76 70.6507 1726.12 71.1561 1726.36 71.7174C1726.59 72.2787 1726.7 72.8831 1726.68 73.4902V101.773C1726.6 102.37 1726.38 102.943 1726.05 103.448C1725.71 103.953 1725.27 104.378 1724.75 104.691Z" fill="white"/>
<path d="M1312.14 73.0609C1312.09 72.4757 1311.93 71.9049 1311.66 71.3825C1311.39 70.8601 1311.02 70.3966 1310.57 70.0199C1310.12 69.6433 1309.59 69.3612 1309.02 69.1901C1308.46 69.0191 1307.86 68.9625 1307.27 69.0242H1267.12C1266.53 68.9625 1265.94 69.0191 1265.38 69.1901C1264.81 69.3612 1264.28 69.6433 1263.83 70.0199C1263.38 70.3966 1263.01 70.8601 1262.74 71.3825C1262.47 71.9049 1262.31 72.4757 1262.26 73.0609L1206.97 324.894C1206.17 328.146 1206.96 329.828 1210.69 329.828H1245.3C1248.35 329.828 1249.93 328.482 1250.16 325.679L1287.02 136.412C1287.02 135.627 1287.03 135.29 1288.16 135.29C1289.29 135.29 1289.06 135.29 1289.29 136.412L1309.98 248.537C1309.98 249.77 1309.98 250.331 1308.06 250.331H1277.76C1277.33 250.322 1276.91 250.409 1276.52 250.583C1276.13 250.758 1275.8 251.016 1275.53 251.339C1275.26 251.662 1275.06 252.042 1274.95 252.449C1274.85 252.857 1274.85 253.282 1274.93 253.694L1280.47 282.062C1280.6 282.686 1280.94 283.248 1281.44 283.656C1281.93 284.063 1282.54 284.292 1283.18 284.305H1314.51C1315.98 284.305 1316.78 284.865 1316.78 286.099L1323.9 325.23C1323.9 328.034 1325.7 329.379 1328.76 329.379H1363.7C1366.42 329.379 1367.78 328.258 1367.78 326.015V324.445L1312.14 73.0609Z" fill="white"/>
<path d="M1770.43 329.828C1769.19 329.828 1768.07 329.455 1767.07 328.71C1766.32 327.716 1765.95 326.599 1765.95 325.356V73.4713C1765.95 72.2293 1766.32 71.2357 1767.07 70.4904C1768.07 69.4968 1769.19 69 1770.43 69H1804.76C1806 69 1806.99 69.4968 1807.74 70.4904C1808.74 71.2357 1809.23 72.2293 1809.23 73.4713V290.703C1809.23 291.946 1809.85 292.567 1811.1 292.567H1891.69C1892.94 292.567 1893.93 293.064 1894.68 294.057C1895.67 294.802 1896.17 295.796 1896.17 297.038V325.356C1896.17 326.599 1895.67 327.716 1894.68 328.71C1893.93 329.455 1892.94 329.828 1891.69 329.828H1770.43Z" fill="white"/>
<path d="M1131.76 69C1145.32 69 1157.22 72.2247 1167.45 78.6741C1177.94 85.1235 1186 94.1773 1191.63 105.836C1197.52 117.494 1200.46 130.765 1200.46 145.648C1200.46 167.973 1194.32 185.957 1182.04 199.6C1170.01 213.242 1154.02 220.065 1134.06 220.065H1119.99C1119.35 220.052 1118.74 219.823 1118.24 219.415C1117.75 219.008 1117.41 218.445 1117.28 217.822L1111.74 189.454C1111.65 189.042 1111.66 188.616 1111.76 188.209C1111.86 187.801 1112.06 187.422 1112.33 187.098C1112.61 186.775 1112.94 186.517 1113.33 186.343C1113.71 186.169 1114.14 186.082 1114.56 186.091L1124.47 186.205C1133.93 186.205 1141.48 182.732 1147.11 175.787C1153 168.593 1155.94 158.919 1155.94 146.765C1155.94 134.362 1153 124.564 1147.11 117.37C1141.48 109.929 1133.93 106.208 1124.47 106.208H1101.44C1100.16 106.208 1099.52 106.828 1099.52 108.068V325.363C1099.52 326.603 1099.01 327.72 1097.99 328.712C1097.22 329.455 1096.2 329.828 1094.92 329.828H1059.61C1058.33 329.828 1057.18 329.455 1056.15 328.712C1055.39 327.72 1055 326.603 1055 325.363V73.465C1055 72.2247 1055.39 71.2325 1056.15 70.4883C1057.18 69.4961 1058.33 69 1059.61 69H1131.76Z" fill="white"/>
<rect x="224.456" y="0.452148" width="49.255" height="266.922" transform="rotate(15 224.456 0.452148)" fill="white"/>
<rect x="0.169922" y="215.944" width="49.255" height="156.858" transform="rotate(-45 0.169922 215.944)" fill="white"/>
<rect x="240.819" y="260.191" width="49.255" height="276.643" transform="rotate(-60 240.819 260.191)" fill="white"/>
</svg>
